<svg viewBox="-46 0 512 512" xmlns="http://www.w3.org/2000/svg"><path d="m170 412c5.519531 0 10-4.480469 10-10s-4.480469-10-10-10-10 4.480469-10 10 4.480469 10 10 10zm0 0"/><path d="m0 70c0 78.144531 53.1875 145.414062 127.355469 164.605469 9.644531 12.496093 20.601562 24.015625 32.648437 34.253906 6.351563 5.398437 9.996094 13.855469 9.996094 23.199219v59.941406h-20c-16.542969 0-30 13.457031-30 30v70h-10c-16.542969 0-30 13.457031-30 30v20c0 5.523438 4.476562 10 10 10h240c5.519531 0 10-4.476562 10-10v-20c0-16.542969-13.460938-30-30-30h-10v-70c0-16.542969-13.460938-30-30-30h-20v-59.941406c0-9.34375 3.640625-17.800782 9.996094-23.199219 12.042968-10.238281 23.003906-21.757813 32.648437-34.253906 74.164063-19.191407 127.355469-86.457031 127.355469-164.605469v-20c0-16.542969-13.457031-30-30-30h-50v-10c0-5.523438-4.476562-10-10-10h-240c-5.523438 0-10 4.476562-10 10v10h-50c-16.542969 0-30 13.457031-30 30zm310 402c5.515625 0 10 4.484375 10 10v10h-220v-10c0-5.515625 4.484375-10 10-10zm-40-100c5.515625 0 10 4.484375 10 10v70h-140v-70c0-5.515625 4.484375-10 10-10zm70-276.160156v-55.839844h50c5.515625 0 10 4.484375 10 10v20c0 60.519531-35.542969 113.617188-89.152344 137.210938 19.140625-33.875 29.152344-71.863282 29.152344-111.371094zm-240-75.839844h220v75.839844c0 45.007812-14.234375 87.855468-41.164062 123.917968-9.269532 12.417969-19.964844 23.808594-31.792969 33.859376-10.832031 9.207031-17.042969 23.21875-17.042969 38.441406v59.941406h-40v-59.941406c0-15.222656-6.210938-29.234375-17.042969-38.4375-11.828125-10.054688-22.523437-21.445313-31.792969-33.863282-26.929687-36.0625-41.164062-78.910156-41.164062-123.917968zm-80 30c0-5.515625 4.484375-10 10-10h50v55.839844c0 39.507812 10.011719 77.5 29.152344 111.371094-53.605469-23.59375-89.152344-76.691407-89.152344-137.210938zm0 0"/><path d="m210 412h40c5.523438 0 10-4.476562 10-10s-4.476562-10-10-10h-40c-5.523438 0-10 4.476562-10 10s4.476562 10 10 10zm0 0"/><path d="m173.613281 123.980469-4.988281 29.097656c-.644531 3.75.898438 7.542969 3.976562 9.78125 3.078126 2.238281 7.160157 2.535156 10.53125.761719l26.144532-13.734375 26.140625 13.734375c3.371093 1.773437 7.453125 1.476562 10.53125-.761719s4.621093-6.03125 3.976562-9.78125l-4.988281-29.097656 21.144531-20.621094c2.726563-2.660156 3.703125-6.632813 2.527344-10.25-1.175781-3.621094-4.304687-6.257813-8.070313-6.804687l-29.226562-4.246094-13.0625-26.484375c-1.6875-3.414063-5.160156-5.574219-8.96875-5.574219s-7.285156 2.160156-8.96875 5.574219l-13.074219 26.484375-29.226562 4.246094c-3.765625.546874-6.894531 3.183593-8.070313 6.804687-1.179687 3.621094-.199218 7.59375 2.527344 10.25zm21.703125-22.882813c3.257813-.476562 6.074219-2.519531 7.53125-5.472656l6.429688-13.027344 6.421875 13.027344c1.457031 2.953125 4.273437 4.996094 7.53125 5.472656l14.382812 2.085938-10.402343 10.144531c-2.359376 2.300781-3.433594 5.609375-2.875 8.851563l2.453124 14.3125-12.855468-6.753907c-2.914063-1.53125-6.394532-1.53125-9.304688 0l-12.867187 6.757813 2.457031-14.316406c.554688-3.242188-.519531-6.550782-2.875-8.851563l-10.40625-10.144531zm0 0"/></svg>