<?xml version="1.0" encoding="iso-8859-1"?>
<!-- Generator: Adobe Illustrator 19.0.0, SVG Export Plug-In . SVG Version: 6.00 Build 0)  -->
<svg version="1.1" id="Capa_1" xmlns="http://www.w3.org/2000/svg" xmlns:xlink="http://www.w3.org/1999/xlink" x="0px" y="0px"
	 viewBox="0 0 482.557 482.557" style="enable-background:new 0 0 482.557 482.557;" xml:space="preserve">
<g>
	<g>
		<g>
			<path d="M273.279,231.997h-24v-96c-0.001-4.418-3.583-7.999-8.002-7.998c-2.121,0-4.154,0.843-5.654,2.342l-32,32
				c-3.069,3.178-2.981,8.243,0.197,11.312c3.1,2.994,8.015,2.994,11.115,0l18.344-18.344v76.688h-24c-4.418,0-8,3.582-8,8
				s3.582,8,8,8h64c4.418,0,8-3.582,8-8S277.697,231.997,273.279,231.997z"/>
			<path d="M205.939,77.088c-67.945,19.518-107.202,90.421-87.684,158.365c0.988,3.426,4.123,5.784,7.688,5.784
				c0.747,0.002,1.491-0.103,2.208-0.312c4.245-1.22,6.699-5.65,5.48-9.896c-5.773-20.099-5.804-41.412-0.089-61.527
				C150.446,110,212.385,75.469,271.886,92.373c59.501,16.904,94.033,78.843,77.129,138.344c-1.208,4.25,1.258,8.676,5.508,9.884
				c4.25,1.208,8.676-1.258,9.884-5.508c6.532-22.99,6.496-47.35-0.103-70.321C344.786,96.827,273.883,57.57,205.939,77.088z"/>
			<path d="M320.479,267.877c-3.126-3.126-8.194-3.126-11.32,0c-3.126,3.126-3.126,8.194,0,11.32l11.312,11.304
				c1.5,1.5,3.534,2.344,5.656,2.344l0,0.008c2.121,0,4.155-0.843,5.654-2.342c3.125-3.124,3.125-8.189,0.002-11.314
				L320.479,267.877z"/>
			<path d="M349.191,253.069l-13.848-8c-3.805-2.163-8.641-0.867-10.854,2.908c-2.235,3.811-0.957,8.713,2.854,10.948l13.848,8
				c1.215,0.705,2.595,1.075,4,1.072c2.858,0,5.499-1.525,6.928-4C354.328,260.171,353.017,255.278,349.191,253.069z"/>
			<path d="M173.399,267.877c-3.126-3.126-8.194-3.126-11.32,0l-11.304,11.312c-1.499,1.5-2.342,3.534-2.342,5.654
				c-0.001,4.418,3.58,8.001,7.998,8.002c2.119-0.003,4.15-0.846,5.648-2.344l11.32-11.304
				C176.525,276.071,176.525,271.003,173.399,267.877z"/>
			<path d="M155.308,258.871c3.811-2.235,5.089-7.136,2.854-10.948s-7.136-5.089-10.948-2.854l-13.848,8
				c-2.475,1.429-4,4.07-4,6.928c0,4.418,3.581,8,8,8v0c1.405,0.003,2.785-0.367,4-1.072l13.848-8
				C155.246,258.907,155.277,258.889,155.308,258.871z"/>
			<path d="M439.215,194.637L439.215,194.637l-34.672-38.4l10.856-50.584c0.864-4.017-1.457-8.036-5.368-9.296l-49.256-15.856
				l-15.848-49.256c-1.26-3.911-5.279-6.232-9.296-5.368l-50.592,10.856l-38.4-34.672c-3.045-2.748-7.675-2.748-10.72,0
				l-38.4,34.672l-50.584-10.856c-4.017-0.864-8.036,1.457-9.296,5.368l-15.856,49.248L72.527,96.349
				c-3.911,1.26-6.232,5.279-5.368,9.296l10.856,50.592l-34.672,38.4c-2.748,3.045-2.748,7.675,0,10.72l34.672,38.4l-10.856,50.584
				c-0.864,4.017,1.457,8.036,5.368,9.296l37.256,12c-0.907,0.651-1.667,1.485-2.232,2.448l-60.32,104.472
				c-2.211,3.825-0.903,8.719,2.922,10.93c1.842,1.065,4.032,1.352,6.086,0.798l57.784-15.52l15.528,57.864
				c0.837,3.128,3.477,5.443,6.688,5.864c0.345,0.041,0.692,0.063,1.04,0.064c2.858,0,5.499-1.525,6.928-4l60.08-104.08
				c0.706-1.308,1.028-2.789,0.928-4.272l30.704,27.728c3.045,2.748,7.675,2.748,10.72,0l30.704-27.728
				c-0.1,1.483,0.222,2.964,0.928,4.272l60.08,104.08c1.429,2.475,4.07,4,6.928,4c0.348-0.001,0.695-0.023,1.04-0.064
				c3.211-0.421,5.851-2.736,6.688-5.864l15.528-57.864l57.784,15.52c4.266,1.15,8.656-1.376,9.806-5.642
				c0.554-2.054,0.266-4.244-0.798-6.086l-60.32-104.48c-0.563-0.962-1.32-1.796-2.224-2.448l37.248-12
				c3.911-1.26,6.232-5.279,5.368-9.296l-10.856-50.576l34.672-38.4C441.963,202.312,441.963,197.682,439.215,194.637z
				 M190.431,366.477l-50.416,87.36l-12.6-46.952c-1.143-4.268-5.529-6.802-9.797-5.659c-0.004,0.001-0.008,0.002-0.011,0.003
				l-46.84,12.592l50.648-87.744c0.838-1.529,1.145-3.294,0.872-5.016l15.344,47.688c1.26,3.911,5.279,6.232,9.296,5.368
				l45.344-9.728C191.536,364.968,190.912,365.675,190.431,366.477z M411.807,413.837l-46.848-12.608
				c-4.266-1.149-8.656,1.378-9.805,5.645c-0.001,0.004-0.002,0.008-0.003,0.011l-12.6,46.952l-50.4-87.36
				c-0.482-0.802-1.105-1.509-1.84-2.088l45.336,9.728c4.017,0.864,8.036-1.457,9.296-5.368l15.352-47.704
				c-0.277,1.728,0.03,3.498,0.872,5.032L411.807,413.837z M389.927,236.077c-1.721,1.909-2.42,4.528-1.88,7.04l10.184,47.512
				l-46.272,14.888c-2.455,0.789-4.379,2.713-5.168,5.168l-14.888,46.264l-47.504-10.184c-2.513-0.554-5.138,0.147-7.04,1.88
				l-36.08,32.568l-36.08-32.568c-1.47-1.328-3.379-2.063-5.36-2.064c-0.565-0.001-1.129,0.06-1.68,0.184l-47.512,10.184
				l-14.888-46.272c-0.789-2.455-2.713-4.379-5.168-5.168l-46.264-14.888l10.184-47.504c0.54-2.512-0.159-5.131-1.88-7.04
				l-32.568-36.08l32.568-36.08c1.721-1.909,2.42-4.528,1.88-7.04l-10.184-47.512l46.272-14.888
				c2.455-0.789,4.379-2.713,5.168-5.168l14.888-46.264l47.504,10.184c2.513,0.561,5.141-0.141,7.04-1.88l36.08-32.568l36.08,32.568
				c1.897,1.742,4.527,2.444,7.04,1.88l47.512-10.184l14.888,46.272c0.789,2.455,2.713,4.379,5.168,5.168l46.264,14.888
				l-10.184,47.504c-0.54,2.512,0.159,5.132,1.88,7.04l32.568,36.08L389.927,236.077z"/>
			<path d="M280.063,313.853l-4.144-15.456c-1.163-4.263-5.56-6.776-9.823-5.613c-4.234,1.155-6.747,5.504-5.633,9.749l4.144,15.464
				c0.937,3.494,4.102,5.925,7.72,5.928c0.702,0.004,1.402-0.088,2.08-0.272c4.268-1.144,6.8-5.53,5.656-9.798
				C280.063,313.854,280.063,313.854,280.063,313.853z"/>
			<path d="M300.207,286.069c-2.183-3.841-7.067-5.185-10.908-3.002c-3.841,2.183-5.185,7.067-3.002,10.908
				c0.018,0.031,0.036,0.062,0.054,0.093l8,13.848c2.235,3.811,7.136,5.089,10.948,2.854c3.775-2.214,5.071-7.05,2.908-10.854
				L300.207,286.069z"/>
			<path d="M216.479,292.725c-4.267-1.145-8.655,1.387-9.799,5.654c0,0.001,0,0.001,0,0.002l-4.144,15.456
				c-1.145,4.267,1.387,8.655,5.654,9.799c0.001,0,0.001,0,0.002,0c0.678,0.184,1.378,0.276,2.08,0.272
				c3.618-0.003,6.783-2.434,7.72-5.928l4.144-15.464C223.274,298.252,220.743,293.869,216.479,292.725z"/>
			<path d="M193.279,283.141c-3.826-2.209-8.719-0.898-10.928,2.928l-8,13.848c-2.234,3.812-0.956,8.713,2.856,10.947
				c3.812,2.234,8.713,0.956,10.947-2.856c0.018-0.03,0.035-0.061,0.053-0.092l8-13.848
				C198.416,290.243,197.105,285.35,193.279,283.141z"/>
			<path d="M241.279,295.997c-4.418,0-8,3.582-8,8v16c0,4.418,3.582,8,8,8s8-3.582,8-8v-16
				C249.279,299.579,245.697,295.997,241.279,295.997z"/>
		</g>
	</g>
</g>
<g>
</g>
<g>
</g>
<g>
</g>
<g>
</g>
<g>
</g>
<g>
</g>
<g>
</g>
<g>
</g>
<g>
</g>
<g>
</g>
<g>
</g>
<g>
</g>
<g>
</g>
<g>
</g>
<g>
</g>
</svg>
