<?xml version="1.0" encoding="iso-8859-1"?>
<!-- Generator: Adobe Illustrator 19.0.0, SVG Export Plug-In . SVG Version: 6.00 Build 0)  -->
<svg version="1.1" id="Capa_1" xmlns="http://www.w3.org/2000/svg" xmlns:xlink="http://www.w3.org/1999/xlink" x="0px" y="0px"
	 viewBox="0 0 512 512" style="enable-background:new 0 0 512 512;" xml:space="preserve">
<g>
	<g>
		<path d="M420.183,119.148c-1.719-0.789-3.452-1.534-5.193-2.258c-0.002-1.597-0.004-3.11-0.007-4.52
			c-0.038-16.518-6.836-32.4-19.15-44.732c-12.325-12.305-28.209-19.103-44.728-19.141h-0.001l-75.947,0.064
			c-18.548,0.015-35.987,7.246-49.105,20.362L21.677,273.286c-28.903,28.901-28.903,75.928,0,104.829l63.667,63.662
			c28.97,28.967,75.862,28.971,104.835,0l204.376-204.362c13.117-13.117,20.349-30.556,20.364-49.103
			c0.018-21.475,0.054-37.443,0.069-55.13c48.678,22.678,82.018,71.965,82.011,129.075
			c-0.028,108.944-119.661,181.294-218.495,120.13c-3.427-2.13-8.092-1.173-10.331,2.431c-2.17,3.52-1.08,8.149,2.441,10.33
			C378.362,461.771,512,384.295,512,262.257C512,199.434,475.084,144.353,420.183,119.148z M399.918,188.301
			c-0.012,14.545-5.683,28.221-15.971,38.507L179.572,431.17c-23.054,23.053-60.567,23.053-83.621,0l-63.666-63.662
			c-23.109-23.107-23.111-60.506,0-83.614L236.661,79.532c10.288-10.287,23.964-15.959,38.51-15.97l75.901-0.064
			c12.529,0.028,24.662,5.269,34.156,14.748c9.262,9.275,14.462,21.06,14.731,33.271c-7.666-2.304-15.495-4.022-23.458-5.127
			c-2.718-11.514-13.073-20.112-25.406-20.112c-14.396,0-26.108,11.712-26.108,26.107c0,14.395,11.712,26.106,26.108,26.106
			c11.223,0,20.813-7.118,24.497-17.075c8.406,1.229,16.56,3.187,24.402,5.801C399.984,143.916,399.936,167.02,399.918,188.301z
			 M357.959,120.017h1.182c-2.026,2.134-4.88,3.474-8.048,3.474c-6.124,0-11.107-4.982-11.107-11.106
			c0-6.125,4.983-11.107,11.107-11.107c3.297,0,6.255,1.452,8.291,3.74h-1.424c-4.13,0-7.5,3.36-7.5,7.5
			C350.459,116.648,353.829,120.017,357.959,120.017z"/>
	</g>
</g>
<g>
	<g>
		<path d="M161.868,255.18c-8.771-8.774-23.044-8.773-31.814-0.003l7.068-7.068c2.93-2.93,2.93-7.676,0-10.607
			c-2.928-2.928-7.676-2.928-10.605,0.002l-13.43,13.43c-2.929,2.929-2.929,7.677-0.001,10.604l10.606,10.606
			c2.929,2.929,7.676,2.928,10.604,0l6.361-6.361c2.924-2.924,7.683-2.923,10.606,0.001c2.923,2.924,2.923,7.681-0.001,10.604
			c-1.887,1.887-4.666,2.633-7.252,1.943c-4-1.068-8.111,1.309-9.177,5.312c-1.069,4.001,1.31,8.11,5.312,9.179
			c7.74,2.064,16.063-0.169,21.723-5.828C170.639,278.223,170.639,263.949,161.868,255.18z"/>
	</g>
</g>
<g>
	<g>
		<path d="M199.769,217.278l-10.605-10.605c-8.772-8.772-23.044-8.772-31.816,0c-8.771,8.771-8.771,23.043,0.001,31.815
			l10.605,10.605c8.771,8.771,23.043,8.771,31.814,0C208.54,240.321,208.539,226.048,199.769,217.278z M189.162,238.487
			c-2.924,2.923-7.68,2.924-10.604,0l-10.605-10.605c-2.925-2.924-2.923-7.682,0-10.604c2.925-2.925,7.681-2.925,10.605,0
			l10.605,10.605C192.087,230.807,192.086,235.564,189.162,238.487z"/>
	</g>
</g>
<g>
	<g>
		<circle cx="239.41" cy="198.837" r="7.499"/>
	</g>
</g>
<g>
	<g>
		<circle cx="189.922" cy="184.693" r="7.499"/>
	</g>
</g>
<g>
	<g>
		<path d="M228.95,214.441l-14.141-49.486c-1.139-3.982-5.287-6.289-9.271-5.15c-3.982,1.139-6.287,5.287-5.148,9.27l14.139,49.488
			c1.138,3.981,5.289,6.287,9.271,5.149c1.27-0.363,2.366-1.032,3.236-1.902C228.899,219.947,229.724,217.154,228.95,214.441z"/>
	</g>
</g>
<g>
	<g>
		<path d="M221.214,292.706c-11.695-11.695-30.727-11.693-42.422,0.002c-11.695,11.695-11.695,30.725,0,42.42
			c11.695,11.697,30.727,11.695,42.422,0C232.909,323.433,232.909,304.403,221.214,292.706z M210.608,324.523
			c-5.849,5.849-15.363,5.848-21.211,0c-5.847-5.847-5.848-15.361,0-21.209c5.848-5.848,15.363-5.848,21.21-0.001
			C216.455,309.16,216.455,318.676,210.608,324.523z"/>
	</g>
</g>
<g>
	<g>
		<path d="M251.953,293.783l-10.604-10.606l6.717-6.717c2.93-2.93,2.93-7.676,0-10.605c-2.93-2.928-7.676-2.928-10.604,0
			l-6.717,6.717l-5.303-5.303l10.958-10.958c2.929-2.929,2.929-7.677-0.001-10.606c-2.93-2.928-7.676-2.928-10.604,0.001
			l-16.261,16.261c-2.929,2.929-2.93,7.676-0.001,10.604l31.816,31.816c2.93,2.93,7.677,2.929,10.604,0.001
			S254.883,296.712,251.953,293.783z"/>
	</g>
</g>
<g>
	<g>
		<path d="M283.173,262.562l-10.604-10.606l6.717-6.717c2.928-2.928,2.929-7.675-0.001-10.604c-2.929-2.929-7.675-2.929-10.604,0
			l-6.717,6.717l-5.303-5.303l10.958-10.958c2.93-2.93,2.929-7.677-0.001-10.606c-2.929-2.929-7.675-2.929-10.604,0.001
			l-16.261,16.261c-2.929,2.929-2.929,7.675-0.001,10.604l31.816,31.816c2.93,2.93,7.678,2.928,10.605,0
			C286.1,270.239,286.103,265.491,283.173,262.562z"/>
	</g>
</g>
<g>
</g>
<g>
</g>
<g>
</g>
<g>
</g>
<g>
</g>
<g>
</g>
<g>
</g>
<g>
</g>
<g>
</g>
<g>
</g>
<g>
</g>
<g>
</g>
<g>
</g>
<g>
</g>
<g>
</g>
</svg>
