<?xml version="1.0" encoding="iso-8859-1"?>
<!-- Generator: Adobe Illustrator 19.0.0, SVG Export Plug-In . SVG Version: 6.00 Build 0)  -->
<svg version="1.1" id="Capa_1" xmlns="http://www.w3.org/2000/svg" xmlns:xlink="http://www.w3.org/1999/xlink" x="0px" y="0px"
	 viewBox="0 0 511.999 511.999" style="enable-background:new 0 0 511.999 511.999;" xml:space="preserve">
<g>
	<g>
		<path d="M173.805,445.413h-0.086c-2.202,0-3.952,1.78-3.952,3.999c0,2.203,1.828,3.999,4.038,3.999c2.203,0,4-1.796,4-3.999
			C177.805,447.193,176.008,445.413,173.805,445.413z"/>
	</g>
</g>
<g>
	<g>
		<path d="M168.15,428.448h-0.086c-2.203,0-3.952,1.78-3.952,3.999c0,2.202,1.827,3.999,4.038,3.999
			c2.203,0,3.999-1.797,3.999-3.999C172.149,430.228,170.352,428.448,168.15,428.448z"/>
	</g>
</g>
<g>
	<g>
		<path d="M162.495,411.482h-0.086c-2.202,0-3.952,1.781-3.952,4c0,2.202,1.828,3.999,4.038,3.999c2.203,0,3.999-1.796,3.999-3.999
			C166.494,413.263,164.698,411.482,162.495,411.482z"/>
	</g>
</g>
<g>
	<g>
		<path d="M285.077,322.287c-4.264-2.64-9.763,0.156-17.363,3.968c-8.014,4.046-17.996,9.045-23.839,5.671
			c-4.171-2.406-6.701-9.545-7.318-20.621c-0.117-2.203-1.984-3.89-4.21-3.765c-2.211,0.125-3.898,2-3.773,4.202
			c0.796,14.309,4.491,23.167,11.302,27.119c9.577,5.53,21.691-0.562,31.431-5.451c2.874-1.453,6.983-3.515,9.084-4.031
			c-0.015,18.183-19.019,29.384-37.398,40.195c-10.404,6.139-20.23,11.919-26.979,19.012c-4.218,4.435-8.107,14.246-13.497,27.821
			c-12.192,30.744-30.618,77.187-65.064,84.311c-23.643,4.889-52.442-9.483-85.646-42.679
			c-33.172-33.164-47.606-62.064-42.896-85.872c6.944-35.133,53.567-54.567,87.614-68.767c14.559-6.061,26.057-10.858,32.399-15.887
			c11.108-8.842,21.074-22.699,30.713-36.102c15.511-21.566,31.516-43.823,52.48-46.291c-1.039,1.565-2.381,3.413-3.569,5.049
			c-7.6,10.49-18.019,24.854-13.622,37.554c2.476,7.17,9.366,12.408,20.457,15.563c2.124,0.625,4.327-0.633,4.936-2.749
			c0.609-2.125-0.624-4.336-2.749-4.941c-8.436-2.402-13.513-5.928-15.083-10.49c-3.038-8.76,6.335-21.687,12.537-30.244
			c5.28-7.284,8.194-11.294,6.272-15.055c-0.555-1.09-1.992-2.914-5.382-2.914c-0.008,0-0.008,0-0.008,0
			c-26.916,0-45.139,25.339-62.76,49.845c-9.756,13.56-18.965,26.369-29.205,34.508c-5.46,4.342-17.059,9.17-30.494,14.778
			c-35.703,14.871-84.606,35.258-92.386,74.593c-5.335,26.964,9.42,57.41,45.092,93.074c30.54,30.54,58.097,45.943,82.107,45.943
			c3.687,0,7.296-0.36,10.809-1.09c38.672-7.998,58.058-56.847,70.883-89.184c4.671-11.78,8.71-21.949,11.857-25.261
			c5.976-6.279,15.333-11.794,25.245-17.621c19.37-11.42,41.335-24.338,41.335-47.115
			C288.389,325.192,286.585,323.209,285.077,322.287z"/>
	</g>
</g>
<g>
	<g>
		<path d="M428.773,97.98c-1.561-1.531-4.092-1.512-5.654,0.07l-210.01,215.579l-16.887-16.887L411.801,86.744
			c1.586-1.543,1.617-4.074,0.078-5.659c-1.546-1.582-4.077-1.601-5.654-0.074L187.739,293.836c-0.765,0.75-1.202,1.782-1.21,2.844
			c-0.008,1.077,0.414,2.092,1.171,2.858l22.62,22.62c0.75,0.75,1.766,1.172,2.828,1.172c0.008,0,0.016,0,0.024,0
			c1.071-0.016,2.093-0.453,2.843-1.219l212.836-218.476C430.39,102.049,430.359,99.519,428.773,97.98z"/>
	</g>
</g>
<g>
	<g>
		<path d="M425.985,83.877c-1.561-1.562-4.093-1.562-5.655,0L204.666,299.538c-1.562,1.561-1.562,4.093,0,5.655
			c0.781,0.781,1.804,1.172,2.827,1.172c1.024,0,2.047-0.39,2.828-1.172L425.985,89.532
			C427.547,87.97,427.547,85.439,425.985,83.877z"/>
	</g>
</g>
<g>
	<g>
		<path d="M210.321,322.158c-1.562-1.562-4.093-1.562-5.655,0l-84.842,84.841c-1.562,1.562-1.562,4.093,0,5.655
			c0.781,0.781,1.805,1.172,2.828,1.172c1.023,0,2.046-0.39,2.828-1.172l84.841-84.841
			C211.883,326.251,211.883,323.72,210.321,322.158z"/>
	</g>
</g>
<g>
	<g>
		<path d="M199.011,310.848c-1.562-1.562-4.093-1.562-5.655,0l-84.841,84.826c-1.562,1.562-1.562,4.092,0,5.654
			c0.781,0.781,1.804,1.172,2.827,1.172c1.023,0,2.047-0.391,2.828-1.172l84.841-84.825
			C200.573,314.942,200.573,312.41,199.011,310.848z"/>
	</g>
</g>
<g>
	<g>
		<path d="M187.701,299.538c-1.562-1.562-4.093-1.562-5.655,0l-84.842,84.825c-1.562,1.562-1.562,4.093,0,5.655
			c0.781,0.781,1.805,1.172,2.828,1.172s2.046-0.39,2.828-1.172l84.841-84.825C189.263,303.631,189.263,301.1,187.701,299.538z"/>
	</g>
</g>
<g>
	<g>
		<path d="M204.667,339.123l-33.931-33.93c-1.562-1.562-4.093-1.562-5.655,0c-1.562,1.561-1.562,4.092,0,5.654l33.93,33.931
			c0.781,0.781,1.804,1.172,2.827,1.172s2.047-0.39,2.829-1.172C206.229,343.216,206.229,340.685,204.667,339.123z"/>
	</g>
</g>
<g>
	<g>
		<path d="M159.418,384.363l-33.931-33.93c-1.562-1.562-4.093-1.562-5.655,0c-1.562,1.562-1.562,4.092,0,5.654l33.931,33.931
			c0.781,0.781,1.804,1.172,2.827,1.172s2.047-0.39,2.828-1.172C160.98,388.457,160.98,385.925,159.418,384.363z"/>
	</g>
</g>
<g>
	<g>
		<path d="M182.046,361.743l-33.938-33.93c-1.562-1.562-4.093-1.562-5.655,0c-1.562,1.561-1.562,4.093,0,5.655l33.938,33.93
			c0.781,0.781,1.804,1.172,2.827,1.172s2.047-0.39,2.828-1.172C183.608,365.836,183.608,363.305,182.046,361.743z"/>
	</g>
</g>
<g>
	<g>
		<path d="M148.107,406.999l-45.248-45.256c-1.562-1.562-4.093-1.562-5.655,0l-16.965,16.966c-1.562,1.561-1.562,4.092,0,5.654
			l45.248,45.256c0.75,0.75,1.766,1.172,2.828,1.172s2.078-0.422,2.827-1.172l16.965-16.965c0.75-0.75,1.172-1.765,1.172-2.827
			S148.857,407.749,148.107,406.999z M128.315,421.137l-39.593-39.601l11.31-11.31l39.593,39.601L128.315,421.137z"/>
	</g>
</g>
<g>
	<g>
		<path d="M126.237,441.961c-0.992-1.969-3.382-2.765-5.366-1.781c-1.977,0.984-2.773,3.389-1.789,5.358
			c0.102,0.204,9.849,20.214-4.913,34.977c-1.562,1.562-1.562,4.093,0,5.655c0.782,0.781,1.805,1.172,2.828,1.172
			c1.024,0,2.046-0.391,2.827-1.172C134.86,471.142,130.595,450.678,126.237,441.961z"/>
	</g>
</g>
<g>
	<g>
		<path d="M125.479,440.93c-1.562-1.562-4.085-1.547-5.647,0c-8.803,8.795-21.316,29.588-5.663,45.24
			c0.782,0.781,1.805,1.172,2.828,1.172c1.024,0,2.046-0.391,2.827-1.172c1.562-1.562,1.562-4.093,0-5.655
			c-13.918-13.919,4.859-33.134,5.671-33.93C127.049,445.007,127.041,442.477,125.479,440.93z"/>
	</g>
</g>
<g>
	<g>
		<path d="M142.454,423.966c-1.562-1.562-4.093-1.562-5.655,0c-1.562,1.561-1.562,4.092,0,5.654
			c25.619,25.605,11.325,50.63,10.7,51.677c-1.117,1.906-0.5,4.358,1.398,5.483c0.64,0.374,1.343,0.562,2.046,0.562
			c1.351,0,2.671-0.688,3.423-1.937C154.553,485.093,172.596,454.1,142.454,423.966z"/>
	</g>
</g>
<g>
	<g>
		<path d="M199.003,265.591c-1.57-1.546-4.1-1.546-5.655,0.016c-23.51,23.652-52.082,38.227-75.038,49.928
			c-22.76,11.606-39.195,19.995-41.155,32.367c-0.992,6.249,1.866,12.623,8.74,19.496c0.781,0.781,1.804,1.172,2.827,1.172
			s2.047-0.39,2.828-1.173c1.562-1.562,1.562-4.093,0-5.655c-4.929-4.937-7.061-9.045-6.499-12.591
			c1.329-8.357,17.809-16.762,36.891-26.494c23.464-11.967,52.668-26.853,77.077-51.411
			C200.573,269.685,200.573,267.153,199.003,265.591z"/>
	</g>
</g>
<g>
	<g>
		<path d="M452.222,88.431c-0.648-0.137-16.372-3.12-29.064,9.584c-1.562,1.562-1.562,4.093,0,5.655
			c0.781,0.781,1.805,1.172,2.827,1.172c1.024,0,2.047-0.391,2.827-1.172c9.584-9.58,21.34-7.483,21.848-7.397
			c2.085,0.426,4.264-0.96,4.702-3.136C455.799,90.97,454.393,88.865,452.222,88.431z"/>
	</g>
</g>
<g>
	<g>
		<path d="M511.202,33.395c-1.335-1.776-3.843-2.124-5.6-0.8c-45.482,34.11-57.261,57.011-57.738,57.968
			c-0.985,1.972-0.188,4.362,1.781,5.354c0.578,0.289,1.187,0.426,1.789,0.426c1.46,0,2.874-0.8,3.577-2.191
			c0.117-0.219,11.693-22.386,55.387-55.16C512.163,37.668,512.522,35.161,511.202,33.395z"/>
	</g>
</g>
<g>
	<g>
		<path d="M511.795,34.528l-5.662-16.965c-0.704-2.097-2.969-3.21-5.062-2.527c-2.093,0.7-3.225,2.965-2.531,5.058l5.663,16.965
			c0.563,1.675,2.125,2.734,3.796,2.734c0.422,0,0.844-0.066,1.266-0.207C511.357,38.886,512.49,36.621,511.795,34.528z"/>
	</g>
</g>
<g>
	<g>
		<path d="M419.081,58.621c-1.562-1.57-4.093-1.563-5.655-0.008c-1.562,1.562-1.562,4.093,0,5.655
			c1.727,1.73-2.179,11.717-7.24,16.782c-1.562,1.562-1.562,4.093,0,5.655c0.781,0.781,1.804,1.171,2.827,1.171
			s2.046-0.39,2.827-1.171C416.862,81.679,426.399,65.947,419.081,58.621z"/>
	</g>
</g>
<g>
	<g>
		<path d="M505.898,17.169c-0.976-1.992-3.406-2.784-5.358-1.816L414.48,57.86c-1.976,0.976-2.789,3.374-1.812,5.354
			c0.695,1.413,2.117,2.229,3.585,2.229c0.601,0,1.203-0.132,1.773-0.414l86.06-42.506
			C506.062,21.547,506.875,19.149,505.898,17.169z"/>
	</g>
</g>
<g>
	<g>
		<path d="M498.727,20.715l-7.084-14.349c-0.976-1.991-3.397-2.788-5.358-1.815c-1.976,0.976-2.789,3.374-1.812,5.354l7.085,14.348
			c0.695,1.414,2.116,2.23,3.585,2.23c0.601,0,1.203-0.132,1.772-0.414C498.891,25.093,499.704,22.695,498.727,20.715z"/>
	</g>
</g>
<g>
	<g>
		<path d="M495.22,4.59c-0.976-1.984-3.397-2.785-5.358-1.812l-7.17,3.546c-1.976,0.98-2.788,3.378-1.812,5.358
			c0.695,1.41,2.117,2.226,3.585,2.226c0.601,0,1.203-0.133,1.773-0.414l7.17-3.546C495.384,8.968,496.197,6.569,495.22,4.59z"/>
	</g>
</g>
<g>
	<g>
		<path d="M484.387,27.787l-7.092-14.34c-0.976-1.992-3.397-2.785-5.358-1.812c-1.976,0.98-2.789,3.378-1.812,5.358l7.092,14.341
			c0.695,1.41,2.117,2.226,3.585,2.226c0.601,0,1.203-0.133,1.773-0.415C484.551,32.165,485.364,29.767,484.387,27.787z"/>
	</g>
</g>
<g>
	<g>
		<path d="M480.879,11.681c-0.983-1.988-3.397-2.78-5.358-1.812l-7.162,3.539c-1.976,0.976-2.789,3.374-1.812,5.358
			c0.695,1.41,2.117,2.226,3.586,2.226c0.601,0,1.202-0.133,1.771-0.415l7.163-3.538C481.043,16.063,481.856,13.665,480.879,11.681z
			"/>
	</g>
</g>
<g>
	<g>
		<path d="M470.039,34.877l-7.077-14.333c-0.976-1.98-3.374-2.792-5.358-1.816c-1.976,0.976-2.789,3.375-1.812,5.354l7.076,14.333
			c0.695,1.414,2.117,2.23,3.585,2.23c0.594,0,1.203-0.133,1.774-0.414C470.203,39.255,471.015,36.857,470.039,34.877z"/>
	</g>
</g>
<g>
	<g>
		<path d="M466.539,18.759c-0.984-1.984-3.397-2.777-5.357-1.812l-7.171,3.546c-1.976,0.98-2.789,3.378-1.812,5.358
			c0.694,1.41,2.116,2.226,3.585,2.226c0.601,0,1.202-0.133,1.772-0.414l7.171-3.546C466.703,23.137,467.516,20.739,466.539,18.759z
			"/>
	</g>
</g>
<g>
	<g>
		<path d="M455.697,41.956l-7.085-14.341c-0.976-1.992-3.405-2.777-5.357-1.812c-1.976,0.976-2.789,3.374-1.812,5.358l7.084,14.341
			c0.695,1.41,2.117,2.226,3.586,2.226c0.601,0,1.202-0.132,1.772-0.414C455.861,46.338,456.673,43.94,455.697,41.956z"/>
	</g>
</g>
<g>
	<g>
		<path d="M452.198,25.851c-0.984-1.987-3.398-2.784-5.358-1.812l-7.171,3.546c-1.975,0.98-2.788,3.378-1.812,5.358
			c0.695,1.41,2.117,2.226,3.586,2.226c0.602,0,1.203-0.133,1.773-0.414l7.17-3.546C452.362,30.229,453.174,27.831,452.198,25.851z"
			/>
	</g>
</g>
<g>
	<g>
		<path d="M441.357,49.049l-7.084-14.341c-0.976-1.988-3.406-2.784-5.359-1.812c-1.976,0.976-2.789,3.375-1.812,5.358l7.085,14.341
			c0.694,1.41,2.116,2.226,3.584,2.226c0.602,0,1.204-0.133,1.774-0.414C441.521,53.431,442.334,51.033,441.357,49.049z"/>
	</g>
</g>
<g>
	<g>
		<path d="M437.858,32.94c-0.967-1.98-3.366-2.789-5.357-1.816l-7.171,3.538c-1.976,0.976-2.789,3.374-1.812,5.354
			c0.695,1.414,2.116,2.23,3.585,2.23c0.593,0,1.203-0.133,1.772-0.413l7.171-3.539C438.022,37.318,438.835,34.92,437.858,32.94z"/>
	</g>
</g>
<g>
	<g>
		<path d="M427.016,56.125l-7.085-14.333c-0.975-1.988-3.389-2.785-5.357-1.812c-1.976,0.98-2.789,3.378-1.812,5.358l7.084,14.333
			c0.695,1.41,2.117,2.226,3.586,2.226c0.601,0,1.203-0.132,1.772-0.414C427.18,60.503,427.993,58.105,427.016,56.125z"/>
	</g>
</g>
<g>
	<g>
		<path d="M423.518,40.019c-0.984-1.984-3.398-2.784-5.358-1.812l-7.171,3.546c-1.976,0.98-2.789,3.379-1.812,5.358
			c0.695,1.411,2.116,2.227,3.585,2.227c0.601,0,1.203-0.133,1.774-0.415l7.17-3.546C423.682,44.397,424.495,41.999,423.518,40.019z
			"/>
	</g>
</g>
<g>
</g>
<g>
</g>
<g>
</g>
<g>
</g>
<g>
</g>
<g>
</g>
<g>
</g>
<g>
</g>
<g>
</g>
<g>
</g>
<g>
</g>
<g>
</g>
<g>
</g>
<g>
</g>
<g>
</g>
</svg>
