<svg height="496pt" viewBox="-56 0 496 496.008" width="496pt" xmlns="http://www.w3.org/2000/svg"><path d="m376.003906 72.007812h-8c-49.863281 0-99.304687-16.480468-139.199218-46.398437l-32-24c-2.839844-2.144531-6.761719-2.144531-9.601563 0l-32 24c-39.894531 29.917969-89.335937 46.398437-139.199219 46.398437h-8c-4.414062 0-7.99999975 3.578126-7.99999975 8v143.535157c0 110.257812 64.27343775 212.234375 163.73437475 259.816406l24.808594 11.863281c1.097656.53125 2.28125.785156 3.457031.785156 1.175782 0 2.359375-.253906 3.457032-.785156l24.808593-11.863281c99.460938-47.574219 163.734375-149.550781 163.734375-259.816406v-143.535157c0-4.421874-3.582031-8-8-8zm-8 151.535157c0 104.136719-60.695312 200.449219-154.648437 245.378906l-21.351563 10.222656-21.351562-10.214843c-93.953125-44.9375-154.648438-141.25-154.648438-245.386719v-135.535157c53.3125 0 106.152344-17.617187 148.800782-49.601562l27.199218-20.398438 27.199219 20.398438c42.648437 31.984375 95.488281 49.601562 148.800781 49.601562zm0 0"/><path d="m187.300781 41.535156-37.511719 27.273438c-31.65625 23.03125-69.082031 35.199218-108.21875 35.199218h-1.566406c-4.414062 0-8 3.578126-8 8v101.992188c0 101.496094 59.265625 195.144531 150.984375 238.585938l5.589844 2.644531c1.089844.523437 2.257813.777343 3.425781.777343 1.167969 0 2.335938-.253906 3.425782-.777343l5.589843-2.644531c91.71875-43.441407 150.984375-137.089844 150.984375-238.585938v-101.992188c0-4.421874-3.582031-8-8-8h-1.566406c-39.144531 0-76.5625-12.167968-108.226562-35.191406l-37.503907-27.273437c-2.808593-2.046875-6.597656-2.046875-9.40625-.007813zm148.703125 78.367188v94.097656c0 95.335938-55.671875 183.3125-141.832031 224.136719l-2.167969 1.023437-2.167968-1.023437c-86.160157-40.824219-141.832032-128.800781-141.832032-224.136719v-94.097656c40.199219-1.261719 78.519532-14.390625 111.191406-38.160156l32.808594-23.847657 32.800782 23.847657c32.679687 23.769531 71 36.898437 111.199218 38.160156zm0 0"/><path d="m216.003906 344.007812h-48c-4.414062 0-8 3.578126-8 8v48c0 4.425782 3.585938 8 8 8h48c4.417969 0 8-3.574218 8-8v-48c0-4.421874-3.582031-8-8-8zm-8 48h-32v-32h32zm0 0"/><path d="m160.003906 112.007812v208c0 4.425782 3.585938 8 8 8h48c4.417969 0 8-3.574218 8-8v-208c0-4.421874-3.582031-8-8-8h-48c-4.414062 0-8 3.578126-8 8zm16 8h32v192h-32zm0 0"/></svg>