<?xml version="1.0" encoding="iso-8859-1"?>
<!-- Generator: Adobe Illustrator 19.0.0, SVG Export Plug-In . SVG Version: 6.00 Build 0)  -->
<svg version="1.1" id="Capa_1" xmlns="http://www.w3.org/2000/svg" xmlns:xlink="http://www.w3.org/1999/xlink" x="0px" y="0px"
	 viewBox="0 0 512 512" style="enable-background:new 0 0 512 512;" xml:space="preserve">
<g>
	<g>
		<path d="M405.845,36.12C368.013,12.49,316.198,0,256,0S143.987,12.49,106.155,36.12c-43.066,26.9-65.83,66.909-65.83,115.703
			c0,47.681,29.143,133.791,72.518,214.274c21.917,40.665,45.191,75.223,67.307,99.935C207.447,496.534,232.967,512,256,512
			s48.553-15.466,75.85-45.968c22.116-24.712,45.391-59.27,67.307-99.935c43.375-80.483,72.518-166.594,72.518-214.274
			C471.675,103.029,448.911,63.021,405.845,36.12z"/>
	</g>
</g>
<g>
</g>
<g>
</g>
<g>
</g>
<g>
</g>
<g>
</g>
<g>
</g>
<g>
</g>
<g>
</g>
<g>
</g>
<g>
</g>
<g>
</g>
<g>
</g>
<g>
</g>
<g>
</g>
<g>
</g>
</svg>
